# xmcd
#
# Track frame offsets: 
#        150
#        19873
#        32286
#        44102
#
# Disc length: 887 seconds
#
# Revision: 0
# Processed by: cddbd v1.5.2PL0 Copyright (c) Steve Scherf et al.
# Submitted via: ExactAudioCopy v1.0b3
#
DISCID=2a037504
DTITLE=Various Artist - The Big Teutonic 4
DYEAR=2012
DGENRE=
TTITLE0=Kreator - The Number Of The Beast (Original by Iron Maiden)
TTITLE1=Sodom - Iron Fist (Original by Motörhead)
TTITLE2=Destruction - The Hammer (Original by Motörhead)
TTITLE3=Tankard - The Prisoner (Original by Iron Maiden)
EXTD=
EXTT0=
EXTT1=
EXTT2=
EXTT3=
PLAYORDER=
